<svg id="Layer_2" data-name="Layer 2" xmlns="http://www.w3.org/2000/svg" viewBox="0 0 514.4 71.42"><defs><style>.cls-1{fill:#343735;}</style></defs><path class="cls-1" d="M250.82,450.6l12.6,39.87,1.08,5.58H265l1.08-5.58,12.33-39.87h30v8.73h-5.85v43.2h5.85v8.74H282.14v-8.74h6.57v-32.4l.63-8.64h-.63l-15.57,49.78H255.86l-15.57-49.78h-.54l.54,8.64v32.4h6.57v8.74H221.57v-8.74h5.85v-43.2h-5.85V450.6Z" transform="translate(-221.57 -442.32)"/><path class="cls-1" d="M348,449.43a39.68,39.68,0,0,1,13.45,2.12,27.2,27.2,0,0,1,10,6.12,26.28,26.28,0,0,1,6.26,9.85,38.85,38.85,0,0,1,2.16,13.41,38.44,38.44,0,0,1-2.16,13.32,26.92,26.92,0,0,1-6.21,9.9,26.43,26.43,0,0,1-10,6.17,44.24,44.24,0,0,1-27,0,26.43,26.43,0,0,1-10-6.17,26.92,26.92,0,0,1-6.21-9.9,38.21,38.21,0,0,1-2.16-13.32,38.61,38.61,0,0,1,2.16-13.41,26.26,26.26,0,0,1,6.25-9.85,27.2,27.2,0,0,1,10-6.12A39.73,39.73,0,0,1,348,449.43Zm0,8.82a16.76,16.76,0,0,0-7.74,1.62,13.34,13.34,0,0,0-5.13,4.59,20.41,20.41,0,0,0-2.88,7.16,48.66,48.66,0,0,0,0,18.63,20.9,20.9,0,0,0,2.83,7.15,13.06,13.06,0,0,0,5.13,4.59,19.52,19.52,0,0,0,15.57,0A13.41,13.41,0,0,0,361,497.4a20.74,20.74,0,0,0,2.88-7.15,48.66,48.66,0,0,0,0-18.63,20.79,20.79,0,0,0-2.88-7.16,13.41,13.41,0,0,0-5.18-4.59A17,17,0,0,0,348,458.25Z" transform="translate(-221.57 -442.32)"/><path class="cls-1" d="M416.14,450.6q10.62,0,16.43,4a12.92,12.92,0,0,1,5.8,11.29,13.8,13.8,0,0,1-2.11,7.79,12.15,12.15,0,0,1-5.54,4.63v.54a16.84,16.84,0,0,1,4,1.89,15.14,15.14,0,0,1,3.56,3.2,15.87,15.87,0,0,1,2.52,4.45,16.33,16.33,0,0,1,.95,5.76,14.89,14.89,0,0,1-6,12.56q-6,4.54-16.51,4.55H387.7v-8.74h5.85v-43.2H387.7V450.6Zm-8.73,25.47h6.12q5.85,0,8.69-2.29a7.72,7.72,0,0,0,2.83-6.35q0-8.1-11.52-8.1h-6.12Zm0,26.46h8.37c4.15,0,7.13-.77,9-2.34a8.27,8.27,0,0,0,2.74-6.66,9,9,0,0,0-2.74-6.88c-1.83-1.71-4.81-2.57-9-2.57h-8.37Z" transform="translate(-221.57 -442.32)"/><path class="cls-1" d="M537.43,450.6,550,490.47l1.08,5.59h.54l1.08-5.59,12.33-39.87h30v8.73h-5.85v43.2H595v8.74H568.75v-8.74h6.57V470.14l.63-8.65h-.63l-15.57,49.78H542.47L526.9,461.49h-.54l.54,8.65v32.39h6.57v8.74H508.18v-8.74H514v-43.2h-5.85V450.6Z" transform="translate(-221.57 -442.32)"/><path class="cls-1" d="M642.1,450.6l20.79,51.93h5v8.74H640.12v-8.74H648l-3.33-8.46h-23l-3.24,8.46h7.92v8.74H600.43v-8.74h5L622,459.33h-7.65V450.6Zm-10.35,16.21-7.11,19h16.83l-7.29-19-.9-3.79h-.54Z" transform="translate(-221.57 -442.32)"/><path class="cls-1" d="M701.5,450.6v8.73h-6.66l-.18.46,2.34,2.06,8.37,10.54,8.46-10.54,2.25-2.06-.18-.46h-6.48V450.6h25.29v8.73H730l-17.46,21.06,18.36,22.14h5v8.74H707.8v-8.74h7l.18-.44-2.16-2-9.54-11.79-9.63,11.79-2.16,2,.18.44h7v8.74h-26v-8.74h5.13L696,480.39l-17.28-21.06H674V450.6Z" transform="translate(-221.57 -442.32)"/><path class="cls-1" d="M492.67,455.44l-19.49,40.44a6.6,6.6,0,0,1-8.9,2.79,7,7,0,0,1-3.5-3.72,6.12,6.12,0,0,1,.14-5l13.58-28.18A1.4,1.4,0,1,1,477,463l-13.58,28.18a3.38,3.38,0,0,0-.06,2.72,4.25,4.25,0,0,0,2.11,2.23,3.81,3.81,0,0,0,5.15-1.48l19.49-40.44a5.78,5.78,0,0,0,.11-4.65,7.07,7.07,0,0,0-3.52-3.71c-3.33-1.6-7.21-.46-8.66,2.55l-24,49.73a8.14,8.14,0,0,0-.16,6.58A10.1,10.1,0,0,0,466,510.53,8.09,8.09,0,0,0,471,506.3l18.06-37.48a1.4,1.4,0,0,1,2.53,1.22l-18.06,37.48a10.94,10.94,0,0,1-6.76,5.7,12.91,12.91,0,0,1-15.48-7.46,10.92,10.92,0,0,1,.24-8.84l24-49.73a8.5,8.5,0,0,1,5.28-4.46,10,10,0,0,1,12,5.8c.05.13.09.25.14.37A8.51,8.51,0,0,1,492.67,455.44Z" transform="translate(-221.57 -442.32)"/></svg>